<?xml version="1.0" standalone="no"?><!DOCTYPE svg PUBLIC "-//W3C//DTD SVG 1.1//EN" "http://www.w3.org/Graphics/SVG/1.1/DTD/svg11.dtd"><svg t="1713446889773" class="icon" viewBox="0 0 1024 1024" version="1.1" xmlns="http://www.w3.org/2000/svg" p-id="9401" xmlns:xlink="http://www.w3.org/1999/xlink" width="32" height="32"><path d="M554.480792 301.78598a70.402535 70.402535 0 1 0 140.815208 0 70.402535 70.402535 0 0 0-140.815208 0zM635.265267 475.156277h126.83406v42.20705h-126.83406v-42.20705zM635.265267 594.984554h126.83406v42.196911h-126.83406v-42.196911zM661.362059 535.075485h126.83406v42.196911h-126.83406v-42.207049zM547.292515 385.987168a22.609109 22.609109 0 0 1 25.620277 19.111287c4.866535 33.386455 13.058535 84.03897 21.838574 127.411961 4.400158 21.757465 8.85101 41.223604 13.007842 55.66099 2.098693 7.269386 3.954059 12.693545 5.495129 16.282614 0.405545 0.942891 0.719842 1.622178 0.963168 2.088554a22.609109 22.609109 0 0 1-28.530059 34.826139c-4.785426-3.244356-7.75604-7.482297-9.347802-10.027089a66.691802 66.691802 0 0 1-4.653624-9.124753c-2.595485-6.062891-5.04903-13.514772-7.360634-21.544554-4.663762-16.171089-9.398495-37.036356-13.889901-59.199367-8.982812-44.457822-17.316752-95.972119-22.254257-129.865504a22.609109 22.609109 0 0 1 19.111287-25.620278z m67.350812 221.356357z" fill="#cdcdcd" p-id="9402"></path><path d="M564.082059 383.026693a37.66495 37.66495 0 0 1-2.55493 53.207446c-45.522376 41.355406-71.041267 103.140119-63.518416 168.747089 0.577901 5.069307 3.193663 9.925703 7.725624 12.247445 38.628119 19.739881 90.588515 64.755327 120.335208 147.111287a22.609109 22.609109 0 0 1-42.521347 15.36c-32.626059-90.355327-94.13703-123.751921-115.833663-129.176079-3.14297-0.790812-6.691485 0-8.496159 2.696871a685.958337 685.958337 0 0 1-28.590891 39.581149c-22.223842 28.44895-49.679208 58.317307-77.276515 74.072713a22.609109 22.609109 0 1 1-22.406336-39.256713c19.466139-11.111921 42.399683-34.917386 64.045623-62.636356 8.739485-11.19303 15.633743-21.676356 22.38606-32.03802 3.629624-5.576238 6.539406-12.774653 5.77901-19.38503-10.392079-90.720317 25.022099-176.128 87.719287-233.086733a37.66495 37.66495 0 0 1 53.207445 2.554931z" fill="#cdcdcd" p-id="9403"></path></svg>