<?xml version="1.0" standalone="no"?><!DOCTYPE svg PUBLIC "-//W3C//DTD SVG 1.1//EN" "http://www.w3.org/Graphics/SVG/1.1/DTD/svg11.dtd"><svg t="1713518839357" class="icon" viewBox="0 0 1024 1024" version="1.1" xmlns="http://www.w3.org/2000/svg" p-id="1140" xmlns:xlink="http://www.w3.org/1999/xlink" width="32" height="32"><path d="M471.936 466.752a169.056 169.056 0 1 0 169.056-169.056 169.056 169.056 0 0 0-169.056 169.056z" fill="#EDA915" p-id="1141"></path><path d="M640.992 249.856a13.728 13.728 0 0 1-13.664-13.696V201.952a13.664 13.664 0 1 1 27.328 0V236.16a13.728 13.728 0 0 1-13.664 13.696z m-127.584 41.6a13.376 13.376 0 0 1-19.2-3.2l-20.064-27.36a13.76 13.76 0 1 1 22.4-16l20.064 27.36a13.472 13.472 0 0 1-3.2 19.2z m-78.848 242.592a13.984 13.984 0 0 1-8.672 17.312l-32.352 10.496a13.696 13.696 0 0 1-8.672-25.984l32.352-10.496a13.248 13.248 0 0 1 17.344 8.544z m78.848 108.512a14.304 14.304 0 0 1 3.2 19.2l-20.064 27.36a13.76 13.76 0 1 1-22.4-16l20.064-27.36a13.44 13.44 0 0 1 19.2-3.328z m127.584 41.6a13.696 13.696 0 0 1 13.664 13.664v34.208a13.664 13.664 0 1 1-27.328 0v-34.208a13.44 13.44 0 0 1 13.664-13.888z m127.584-41.6a13.376 13.376 0 0 1 19.2 3.2l20.064 27.36a13.76 13.76 0 1 1-22.4 16l-20.064-27.36a13.472 13.472 0 0 1 3.2-19.328z m78.848-108.512a13.248 13.248 0 0 1 17.312-8.672l32.352 10.496a13.696 13.696 0 0 1-8.672 25.984l-32.352-10.496a13.6 13.6 0 0 1-8.64-17.44z m0-134.048a13.984 13.984 0 0 1 8.672-17.312l32.352-10.496a13.696 13.696 0 0 1 8.672 25.984l-32.352 10.496a13.6 13.6 0 0 1-17.344-8.8z m-78.848-108.512a14.336 14.336 0 0 1-3.2-19.2l20.064-27.36a13.76 13.76 0 1 1 22.4 16l-20.064 27.36a13.856 13.856 0 0 1-19.2 3.04z" fill="#EDA915" p-id="1142"></path><path d="M813.696 676.224a160.608 160.608 0 0 0-320.8 0v152.192h162.208a156.8 156.8 0 0 0 158.592-152.192z" fill="#EAEAEA" p-id="1143"></path><path d="M712.064 668.928a160.224 160.224 0 0 0-56.032-121.216c0.448-4.576 0.896-9.12 0.896-13.664a160.416 160.416 0 0 0-320.8 0 15.52 15.52 0 0 0 0.448 4.544 148.8 148.8 0 0 0-66.528-15.488 152.448 152.448 0 0 0-5.024 304.864v0.448h294.4v-0.608a159.776 159.776 0 0 0 152.64-158.88z" fill="#F7F7F7" p-id="1144"></path></svg>