<?xml version="1.0" standalone="no"?><!DOCTYPE svg PUBLIC "-//W3C//DTD SVG 1.1//EN" "http://www.w3.org/Graphics/SVG/1.1/DTD/svg11.dtd"><svg t="1713518892596" class="icon" viewBox="0 0 1024 1024" version="1.1" xmlns="http://www.w3.org/2000/svg" p-id="2142" xmlns:xlink="http://www.w3.org/1999/xlink" width="32" height="32"><path d="M511.936 959.968a30.656 30.656 0 0 1-30.112-30.112V94.208a30.08 30.08 0 1 1 60.192 0v835.648a30.656 30.656 0 0 1-30.08 30.112z" fill="#D8D8D8" p-id="2143"></path><path d="M512.032 307.168a25.12 25.12 0 0 1-20.832-9.216l-120.384-120.384a29.472 29.472 0 0 1 41.6-41.6l99.552 99.52 99.52-99.52a29.472 29.472 0 0 1 41.6 41.6l-120.384 120.384a22.4 22.4 0 0 1-20.672 9.216z m-120.384 588a25.12 25.12 0 0 1-20.832-9.248 29.376 29.376 0 0 1 0-41.6l120.384-120.32a34.528 34.528 0 0 1 20.832-9.28 25.184 25.184 0 0 1 20.832 9.28l120.384 120.32a29.472 29.472 0 1 1-41.6 41.6l-99.52-99.52-99.552 99.52a28.224 28.224 0 0 1-21.056 9.216z" fill="#D8D8D8" p-id="2144"></path><path d="M875.488 749.376a59.008 59.008 0 0 1-16.192-4.608L134.592 325.76a30.56 30.56 0 1 1 30.08-53.216l724.544 421.28a33.248 33.248 0 0 1 11.584 41.6 28.992 28.992 0 0 1-25.312 13.952z" fill="#D8D8D8" p-id="2145"></path><path d="M143.968 469.28a32 32 0 0 1-30.112-23.136 29.696 29.696 0 0 1 20.832-37.024l136.576-37.056L234.24 235.488a30.08 30.08 0 0 1 57.888-16.192l43.968 164.352a40 40 0 0 1-2.304 23.136 36.16 36.16 0 0 1-18.528 13.888l-166.656 44c2.304 4.608 0 4.608-4.64 4.608z m615.744 354.176a32 32 0 0 1-30.08-23.168L685.664 633.6a29.76 29.76 0 0 1 20.832-37.056l166.656-43.968a30.08 30.08 0 0 1 16.224 57.888l-136.576 37.024 37.024 136.576a29.728 29.728 0 0 1-20.832 37.056 17.472 17.472 0 0 1-9.28 2.336z" fill="#D8D8D8" p-id="2146"></path><path d="M150.912 749.504a25.056 25.056 0 0 1-25.6-16.224 30.912 30.912 0 0 1 11.584-41.6L861.6 272.704a30.592 30.592 0 0 1 30.08 53.248L167.136 744.928a24.832 24.832 0 0 1-16.224 4.576z" fill="#D8D8D8" p-id="2147"></path><path d="M266.688 823.424h-6.944a29.728 29.728 0 0 1-20.832-37.056l37.056-136.576-136.576-37.056a30.048 30.048 0 1 1 16.192-57.856l166.656 44a35.808 35.808 0 0 1 18.528 13.856 27.456 27.456 0 0 1 2.304 23.168l-43.968 164.352a37.312 37.312 0 0 1-32.416 23.168z m613.44-354.176h-6.944l-166.688-43.968a29.76 29.76 0 0 1-20.832-37.024l44-166.72a30.08 30.08 0 0 1 57.888 16.224l-37.024 136.576 136.576 37.024a29.76 29.76 0 0 1 20.832 37.056 27.776 27.776 0 0 1-27.744 20.832z" fill="#D8D8D8" p-id="2148"></path></svg>