<?xml version="1.0" standalone="no"?><!DOCTYPE svg PUBLIC "-//W3C//DTD SVG 1.1//EN" "http://www.w3.org/Graphics/SVG/1.1/DTD/svg11.dtd"><svg t="1713446843345" class="icon" viewBox="0 0 1024 1024" version="1.1" xmlns="http://www.w3.org/2000/svg" p-id="6670" xmlns:xlink="http://www.w3.org/1999/xlink" width="32" height="32"><path d="M564.315248 362.120871a90.943366 90.943366 0 1 1-181.886733 0 90.943366 90.943366 0 0 1 181.886733 0z" fill="#cdcdcd" p-id="6671"></path><path d="M473.371881 438.991842a76.87097 76.87097 0 1 0 0-153.731802 76.87097 76.87097 0 0 0 0 153.731802z m0 14.082534a90.943366 90.943366 0 1 0 0-181.896871 90.943366 90.943366 0 0 0 0 181.886733z" fill="#cdcdcd" p-id="6672"></path><path d="M372.634614 460.43501a29.564198 29.564198 0 0 1 19.456 37.00594l-73.079129 234.911684c-8.344079 26.836911-21.615525 60.304475-49.719762 60.304475-9.601267 0-72.734416 13.879762-54.424079-31.896079l120.750891-280.880159a29.564198 29.564198 0 0 1 37.016079-19.445861zM404.500277 532.398891L341.265743 762.687366A14.082535 14.082535 0 0 0 354.851485 780.500911h394.858456c7.553267 0 13.788515-5.931089 13.768237-13.484357-0.29402-120.619089-69.206178-318.16998-348.981228-244.44198a14.183921 14.183921 0 0 0-9.996673 9.834456z" fill="#cdcdcd" p-id="6673"></path><path d="M379.042218 507.417347a29.564198 29.564198 0 0 1-40.949862-8.425189l-39.05394-59.310891a29.564198 29.564198 0 0 1 49.375049-32.524673l39.06408 59.310891a29.564198 29.564198 0 0 1-8.435327 40.949862zM661.037624 258.504238a27.130931 27.130931 0 1 1-54.241584 0 27.130931 27.130931 0 0 1 54.241584 0zM733.386772 258.504238a27.130931 27.130931 0 1 1-54.261861 0 27.130931 27.130931 0 0 1 54.261861 0zM805.715644 258.504238a27.130931 27.130931 0 1 1-54.241585 0 27.130931 27.130931 0 0 1 54.241585 0z" fill="#cdcdcd" p-id="6674"></path></svg>