<?xml version="1.0" standalone="no"?><!DOCTYPE svg PUBLIC "-//W3C//DTD SVG 1.1//EN" "http://www.w3.org/Graphics/SVG/1.1/DTD/svg11.dtd"><svg t="1713518848880" class="icon" viewBox="0 0 1024 1024" version="1.1" xmlns="http://www.w3.org/2000/svg" p-id="1472" xmlns:xlink="http://www.w3.org/1999/xlink" width="32" height="32"><path d="M907.584 463.296a183.936 183.936 0 0 0-367.296 0v173.856h185.6a178.528 178.528 0 0 0 181.696-173.856z" fill="#EAEAEA" p-id="1473"></path><path d="M792.096 456.448a183.072 183.072 0 0 0-63.776-138.592c0.48-5.376 0.96-10.272 0.96-15.68a182.4 182.4 0 1 0-364.608 0.48 20.16 20.16 0 0 0 0.48 5.376 171.008 171.008 0 0 0-75.456-17.632 174.144 174.144 0 0 0-5.344 348.192v0.48h334.4v-0.48a182.4 182.4 0 0 0 173.344-182.144z" fill="#F7F7F7" p-id="1474"></path><path d="M577.632 740.096H266.048a15.264 15.264 0 0 1 0-30.464h311.584a15.264 15.264 0 0 1 0 30.464z m180.288 0h-81.632a15.264 15.264 0 0 1 0-30.464h81.632a15.264 15.264 0 0 1 0 30.464z m-410.24 81.888H266.048a15.264 15.264 0 0 1 0-30.464h81.632a15.264 15.264 0 0 1 0 30.464z m410.24 0h-311.584a15.264 15.264 0 0 1 0-30.464h311.584a15.264 15.264 0 0 1 0 30.464z m0 81.888H559.04a15.264 15.264 0 0 1 0-30.464h198.752a15.264 15.264 0 0 1 0 30.464z m-299.52 0H266.048a15.264 15.264 0 0 1 0-30.464h192.352a15.264 15.264 0 0 1 0 30.464z" fill="#D8D8D8" p-id="1475"></path></svg>