<?xml version="1.0" standalone="no"?><!DOCTYPE svg PUBLIC "-//W3C//DTD SVG 1.1//EN" "http://www.w3.org/Graphics/SVG/1.1/DTD/svg11.dtd"><svg t="1713446923771" class="icon" viewBox="0 0 1024 1024" version="1.1" xmlns="http://www.w3.org/2000/svg" p-id="11270" xmlns:xlink="http://www.w3.org/1999/xlink" width="32" height="32"><path d="M848.0768 313.344c16.9472 26.1888 1.1264 58.368-33.408 79.4112l-7.808 4.352-6.0928 3.4048-140.672 78.336-15.8464 8.832-33.9968 18.944 0.5632 3.7888c0 59.8272-17.8176 105.088-21.1968 120.2176l-0.384 1.792c33.2032 43.7504 66.8672 80.3072 101.0176 109.696a20763.6736 20763.6736 0 0 1 180.48 158.1568 44.8 44.8 0 0 1-58.4704 67.8912c-81.152-68.6592-142.3616-118.8608-183.6032-150.6048-29.952-19.7888-67.712-46.3104-113.2032-79.5648l-1.536-0.0256L394.24 870.4a51.2 51.2 0 0 1-55.8592 13.568l-138.752-78.592c-26.496-9.8816-37.8368-32.512-27.9296-59.008 9.8816-26.496 33.7152-36.6592 60.2112-26.752l109.7472 56.2944 74.752-112.0512c3.584-8.32 7.3728-16.9472 11.2896-25.9072l1.1776-0.3328 0.7936-3.3536c0.7936-3.5584 1.6128-7.424 2.4576-11.5712l1.28-6.4768c2.5344-13.0304 4.2752-27.4944 5.2224-43.4176a241.92 241.92 0 0 0-0.64-37.12l-0.1792-1.3824-143.488-1.1776 0.3584 0.128-58.8288-0.9728-0.3328 0.384-4.1472-0.1792a46.848 46.848 0 0 1-26.9824-11.264l-3.2512-3.0208c-9.4464-9.5488-13.0816-26.624-6.8352-43.52 6.2464-16.896 28.032-27.904 41.4208-27.7248 32.7424 0.9472 62.6688 1.4848 89.7536 1.6128h19.8144c80.2816-0.3072 133.0432-4.7616 158.3104-13.312 31.1296-10.5728 66.6624-18.7648 99.2768-33.4336 40.1664-18.048 102.2976-52.608 186.4448-103.68 12.8512-3.4304 41.8048-10.9568 58.752 15.2064zM531.7376 161.8688a116.6592 116.6592 0 0 1 50.432 29.1328 111.872 111.872 0 0 1 30.0032 51.8912c5.4784 20.4544 5.5552 40.7296 0.1536 60.3648a116.1728 116.1728 0 0 1-29.1072 50.7392 111.872 111.872 0 0 1-52.0448 30.2592 112.9728 112.9728 0 0 1-60.3392-0.0768 115.5584 115.5584 0 0 1-50.8672-29.3888 113.7152 113.7152 0 0 1-30.0032-52.3776 112 112 0 0 1 0-59.904c5.376-19.2 15.232-36.1728 29.3632-50.5856a112.9728 112.9728 0 0 1 52.224-30.208 111.872 111.872 0 0 1 60.16 0.1536zM241.024 87.7312a12.8 12.8 0 0 1 5.0944 5.0944l27.6992 50.6368a12.8 12.8 0 0 0 5.0944 5.0944l50.6368 27.6992a12.8 12.8 0 0 1 0 22.4512l-49.92 27.3152a12.8 12.8 0 0 0-5.7344 6.4l-27.136 66.7392a12.8 12.8 0 0 1-23.7312 0l-27.136-66.7392a12.8 12.8 0 0 0-5.7344-6.4l-49.92-27.3152a12.8 12.8 0 0 1 0-22.4512l50.6368-27.6992a12.8 12.8 0 0 0 5.0944-5.0944l27.6992-50.6368a12.8 12.8 0 0 1 17.3568-5.12zM766.208 130.688a8.96 8.96 0 0 1 2.3808 4.4544l5.6832 27.5712a8.96 8.96 0 0 0 2.3808 4.4544l19.6608 20.1216a8.96 8.96 0 0 1-4.608 15.0528l-27.2128 5.632a8.96 8.96 0 0 0-4.8896 2.816l-25.6256 28.9792a8.96 8.96 0 0 1-15.6672-5.9392V198.9888a8.96 8.96 0 0 0-2.56-6.272l-18.944-19.4048a8.96 8.96 0 0 1 4.608-15.0272l27.5456-5.7088a8.96 8.96 0 0 0 4.4544-2.3552l20.1216-19.6608a8.96 8.96 0 0 1 12.672 0.128z" p-id="11271" fill="#cdcdcd"></path></svg>