<?xml version="1.0" standalone="no"?><!DOCTYPE svg PUBLIC "-//W3C//DTD SVG 1.1//EN" "http://www.w3.org/Graphics/SVG/1.1/DTD/svg11.dtd"><svg t="1713519358783" class="icon" viewBox="0 0 1024 1024" version="1.1" xmlns="http://www.w3.org/2000/svg" p-id="2309" xmlns:xlink="http://www.w3.org/1999/xlink" width="32" height="32"><path d="M895.456 452.608a176.832 176.832 0 0 0-353.184 0v167.424h178.88a172 172 0 0 0 174.304-167.424z" fill="#EAEAEA" p-id="2310"></path><path d="M784.448 444.352a175.04 175.04 0 0 0-61.92-133.472c0.448-5.056 0.928-10.08 0.928-15.136a176.832 176.832 0 0 0-353.632 0.448 18.816 18.816 0 0 0 0.448 5.056 168.128 168.128 0 0 0-241.728 150.848 168.384 168.384 0 0 0 162.368 167.872v0.448h324.288v-0.448a176.544 176.544 0 0 0 169.248-175.616z" fill="#F7F7F7" p-id="2311"></path><path d="M321.184 700.768a29.824 29.824 0 1 0 29.824-29.824 29.824 29.824 0 0 0-29.952 29.824z" fill="#D8D8D8" p-id="2312"></path><path d="M451.904 735.584a29.344 29.344 0 1 0 29.344-29.344 29.344 29.344 0 0 0-29.344 29.344z" fill="#D8D8D8" p-id="2313"></path><path d="M474.4 861.728a29.344 29.344 0 1 0 29.344-29.344 29.344 29.344 0 0 0-29.344 29.344z" fill="#D8D8D8" p-id="2314"></path><path d="M585.824 817.696a29.344 29.344 0 1 0 29.344-29.344 29.344 29.344 0 0 0-29.344 29.344z" fill="#D8D8D8" p-id="2315"></path><path d="M549.152 740.192a15.136 15.136 0 1 0 15.136-15.136 15.136 15.136 0 0 0-15.136 15.136z" fill="#D8D8D8" p-id="2316"></path><path d="M612.896 888.8a15.136 15.136 0 1 0 15.136-15.136 15.136 15.136 0 0 0-15.136 15.136z" fill="#D8D8D8" p-id="2317"></path><path d="M405.12 789.28a15.136 15.136 0 1 0 15.136-15.136 15.136 15.136 0 0 0-15.136 15.136z" fill="#D8D8D8" p-id="2318"></path><path d="M330.368 859.904a29.344 29.344 0 1 0 29.344-29.344 29.344 29.344 0 0 0-29.344 29.344z" fill="#D8D8D8" p-id="2319"></path><path d="M612 684.224a29.344 29.344 0 1 0 29.344-29.344 29.344 29.344 0 0 0-29.344 29.344z" fill="#D8D8D8" p-id="2320"></path></svg>