<?xml version="1.0" standalone="no"?><!DOCTYPE svg PUBLIC "-//W3C//DTD SVG 1.1//EN" "http://www.w3.org/Graphics/SVG/1.1/DTD/svg11.dtd"><svg t="1713519087539" class="icon" viewBox="0 0 1024 1024" version="1.1" xmlns="http://www.w3.org/2000/svg" p-id="2287" xmlns:xlink="http://www.w3.org/1999/xlink" width="32" height="32"><path d="M158.421 704.384H865.58c20.266 0 30.421 10.581 30.421 31.787 0 21.162-10.155 31.786-30.421 31.786H158.42c-20.266 0-30.421-10.624-30.421-31.786 0-21.206 10.155-31.787 30.421-31.787z m0 128.043H865.58c20.266 0 30.421 10.581 30.421 31.786S885.845 896 865.579 896H158.42C138.155 896 128 885.419 128 864.213c0-21.162 10.155-31.786 30.421-31.786zM297.515 601.3a29.525 29.525 0 0 1-17.664-5.845 31.659 31.659 0 0 1-11.179-15.488 33.152 33.152 0 0 1-0.427-19.37 31.872 31.872 0 0 1 10.368-16.043c37.504-30.848 58.283-62.72 60.16-92.16a74.965 74.965 0 0 0-17.664-52.608l-1.194-1.195-0.683-0.939c-34.987-43.648-50.09-89.472-44.8-136.234 8.704-76.672 70.357-125.184 73.003-127.147a29.44 29.44 0 0 1 42.282 6.741 32.853 32.853 0 0 1-5.973 44.288c-0.939 0.726-43.605 35.115-48.939 84.054-3.072 28.245 7.126 57.386 30.422 86.613 7.466 8.15 37.29 44.501 34.474 99.157-2.56 49.11-30.592 96-83.328 139.435a29.568 29.568 0 0 1-18.858 6.741z m182.869 0a29.568 29.568 0 0 1-17.664-5.845 31.701 31.701 0 0 1-11.093-15.488 33.11 33.11 0 0 1-0.427-19.37 31.872 31.872 0 0 1 10.325-16.043c37.504-30.848 58.326-62.72 60.16-92.16a75.477 75.477 0 0 0-17.621-52.608l-1.237-1.195-0.683-0.939c-34.987-43.648-50.09-89.472-44.8-136.234 8.704-76.672 70.4-125.184 73.045-127.147a29.355 29.355 0 0 1 21.974-4.693 30.293 30.293 0 0 1 19.114 12.33 32.853 32.853 0 0 1-4.906 43.307c-0.896 0.725-43.563 35.157-48.896 84.053-3.072 28.288 7.125 57.43 30.421 86.614 7.424 8.192 37.29 44.544 34.475 99.2-2.56 49.066-30.592 96-83.328 139.434a29.61 29.61 0 0 1-18.859 6.827z m182.87 0a29.568 29.568 0 0 1-17.665-5.845 31.701 31.701 0 0 1-11.093-15.488 33.11 33.11 0 0 1-0.427-19.37 31.872 31.872 0 0 1 10.326-16.043c37.504-30.848 58.325-62.72 60.16-92.16a75.477 75.477 0 0 0-17.622-52.608l-1.237-1.195-0.683-0.939c-34.986-43.648-50.09-89.472-44.8-136.234 8.704-76.672 70.4-125.184 73.003-127.147a29.44 29.44 0 0 1 42.581 6.57 32.853 32.853 0 0 1-6.272 44.46c-0.938 0.725-43.605 35.114-48.938 84.053-3.03 28.245 7.168 57.386 30.421 86.613 7.467 8.15 37.29 44.501 34.475 99.157-2.688 49.067-30.592 95.958-83.328 139.392a29.568 29.568 0 0 1-18.902 6.827z" fill="#e16531" p-id="2288"></path></svg>