<?xml version="1.0" standalone="no"?><!DOCTYPE svg PUBLIC "-//W3C//DTD SVG 1.1//EN" "http://www.w3.org/Graphics/SVG/1.1/DTD/svg11.dtd"><svg t="1713446944436" class="icon" viewBox="0 0 1024 1024" version="1.1" xmlns="http://www.w3.org/2000/svg" p-id="13742" xmlns:xlink="http://www.w3.org/1999/xlink" width="32" height="32"><path d="M552.838337 298.521347a70.402535 70.402535 0 1 0 140.815208 0 70.402535 70.402535 0 0 0-140.825347 0z" fill="#cdcdcd" p-id="13743"></path><path d="M519.107168 340.251881a21.118733 21.118733 0 0 1 27.94202 10.574574l66.539723 147.476278 95.870733-39.743367a21.118733 21.118733 0 0 1 16.181227 39.023525L610.851485 545.173545a21.118733 21.118733 0 0 1-27.343841-10.82804L508.552871 368.193901A21.118733 21.118733 0 0 1 519.09703 340.251881z" fill="#cdcdcd" p-id="13744"></path><path d="M549.046495 355.611881a35.201267 35.201267 0 0 1-22.041346 44.640317c-32.190099 53.400079-29.513505 119.595089-49.131723 178.784317-14.954455 45.157386-54.008396-14.802376-54.008396 10.817901 0 19.445861-18.482693 22.619248-37.918416 22.619247-19.456 0-32.484119-3.173386-32.484119-22.619247 0-45.927921 12.409663-100.098535 36.265822-147.09101 23.673663-46.627485 61.247366-91.085307 114.667723-109.192871a35.201267 35.201267 0 0 1 44.650455 22.031208z" fill="#cdcdcd" p-id="13745"></path><path d="M535.237703 612.42297h-144.982178a35.201267 35.201267 0 1 1 0-70.402534h180.183445a35.201267 35.201267 0 0 1 35.211406 35.201267v185.465663a35.201267 35.201267 0 1 1-70.412673 0V612.42297zM752.548752 385.439683c3.629624 1.399129 5.434297 5.474851 4.045307 9.104475l-30.699722 79.851723a7.036198 7.036198 0 0 1-13.139644-5.059168l30.689584-79.851723a7.046337 7.046337 0 0 1 9.104475-4.045307z" fill="#cdcdcd" p-id="13746"></path><path d="M264.171723 441.56705a18.857822 18.857822 0 0 1 37.634534-2.70701l23.693941 329.94091a18.857822 18.857822 0 1 1-37.624396 2.70701l-23.704079-329.94091z" fill="#cdcdcd" p-id="13747"></path><path d="M289.751446 647.451881c0-7.766178 6.296079-14.072396 14.082534-14.072396h177.527129c9.337663 0 16.08998 8.932119 13.545188 17.925069l-28.144792 99.196198a14.082535 14.082535 0 0 1-13.545188 10.24h-24.14004c-7.776317 0-14.082535 6.306218-14.082534 14.092674v2.453544c0 7.776317-6.306218 14.092673-14.082535 14.092674h-97.077228a14.082535 14.082535 0 0 1-14.092673-14.092674V647.46202z" fill="#cdcdcd" p-id="13748"></path></svg>