<?xml version="1.0" standalone="no"?><!DOCTYPE svg PUBLIC "-//W3C//DTD SVG 1.1//EN" "http://www.w3.org/Graphics/SVG/1.1/DTD/svg11.dtd"><svg t="1713518872933" class="icon" viewBox="0 0 1024 1024" version="1.1" xmlns="http://www.w3.org/2000/svg" p-id="1978" xmlns:xlink="http://www.w3.org/1999/xlink" width="32" height="32"><path d="M508.288 869.568a46.528 46.528 0 0 1-89.888-23.936c6.784-24.832 64.608-61.888 64.608-61.888s32.064 60.96 25.28 85.824z m-133.728-112.928a50.944 50.944 0 1 1-98.464-26.208c7.232-27.104 70.912-67.776 70.912-67.776s34.816 66.848 27.584 93.952z m312.608 13.088a54.24 54.24 0 1 1-104.8-28c7.68-28.8 75.424-72.288 75.424-72.288s37.088 71.424 29.408 100.224z" fill="#16A9D4" p-id="1979"></path><path d="M876.896 436.768a169.6 169.6 0 0 0-338.784 0v160.352h171.2a164.672 164.672 0 0 0 167.584-160.352z" fill="#EAEAEA" p-id="1980"></path><path d="M770.304 430.464a168.864 168.864 0 0 0-58.816-128c0.448-4.96 0.896-9.6 0.896-14.464a168.16 168.16 0 1 0-336.288 0.448 18.624 18.624 0 0 0 0.448 4.96 157.728 157.728 0 0 0-69.6-16.256 160.64 160.64 0 0 0-4.928 321.184v0.64h308.448v-0.448a168.288 168.288 0 0 0 159.84-168.064z" fill="#F7F7F7" p-id="1981"></path></svg>