<?xml version="1.0" standalone="no"?><!DOCTYPE svg PUBLIC "-//W3C//DTD SVG 1.1//EN" "http://www.w3.org/Graphics/SVG/1.1/DTD/svg11.dtd"><svg t="1713519378236" class="icon" viewBox="0 0 1024 1024" version="1.1" xmlns="http://www.w3.org/2000/svg" p-id="2483" xmlns:xlink="http://www.w3.org/1999/xlink" width="32" height="32"><path d="M511.968 335.392c-145.536 0-391.904-21.44-391.904-101.856s246.4-101.856 391.904-101.856c28.192 0 56.32 0.704 83.552 2.016a20.608 20.608 0 0 1-2.112 41.152 1656.768 1656.768 0 0 0-81.44-2.016c-217.28 0-343.808 39.744-350.72 61.12 6.912 20.224 133.376 60.064 350.72 60.064s343.744-39.744 350.72-61.12c-0.448 0-9.824-17.856-87.136-35.552a20.608 20.608 0 1 1 9.184-40.192c80.224 18.304 119.328 43.264 119.328 76.288-0.224 80.64-246.4 101.952-392.096 101.952z m0 139.232a1261.216 1261.216 0 0 1-283.392-28.096 20.608 20.608 0 0 1 9.888-40.032 1220.832 1220.832 0 0 0 273.504 26.88 1220.832 1220.832 0 0 0 273.504-26.88 20.608 20.608 0 1 1 9.888 40.032 1261.184 1261.184 0 0 1-283.392 28.096z m0 417.728c-16 0-31.616-0.16-46.944-0.608a20.576 20.576 0 0 1-20.064-21.184 20.032 20.032 0 0 1 21.184-20.064 1751.36 1751.36 0 0 0 91.68 0 20.256 20.256 0 0 1 21.184 20.064 20.64 20.64 0 0 1-20.064 21.184c-15.36 0.352-31.04 0.608-46.976 0.608z m0-139.232c-48.768 0-96.256-2.016-141.088-5.952a20.608 20.608 0 0 1 3.584-41.088 1575.36 1575.36 0 0 0 137.408 5.792c15.488 0 30.816-0.16 45.792-0.608a20.64 20.64 0 0 1 1.152 41.248c-15.232 0.32-30.912 0.608-46.848 0.608z m0-139.232a1555.2 1555.2 0 0 1-164.64-8.32 20.64 20.64 0 0 1-18.304-22.688 20.416 20.416 0 0 1 22.688-18.304 1519.648 1519.648 0 0 0 160.256 8.064 1433.248 1433.248 0 0 0 205.792-13.824 20.64 20.64 0 1 1 6.144 40.8 1467.936 1467.936 0 0 1-211.936 14.272z" fill="#ffce54" p-id="2484"></path><path d="M511.968 128.48c27.808 0 55.968 0.672 83.712 2.016a23.712 23.712 0 0 1 22.56 24.992 23.872 23.872 0 0 1-25.024 22.4c-26.912-1.344-54.4-2.016-81.248-2.016a1240.64 1240.64 0 0 0-253.6 22.4c-58.368 12.32-88.928 26.72-93.664 35.392 9.6 16.64 124.8 56.928 347.232 56.928a1240.288 1240.288 0 0 0 253.536-22.4c57.184-12.096 87.712-26.144 93.408-34.88a179.808 179.808 0 0 0-84.032-32.992 23.808 23.808 0 1 1 10.624-46.432c81.856 18.688 121.6 44.8 121.6 79.392 0 37.472-48.512 65.824-144 84.288a1523.616 1523.616 0 0 1-502.4 0c-95.52-18.464-144-46.784-144-84.224s48.448-65.76 144-84.224a1447.04 1447.04 0 0 1 251.296-20.64z m82.688 43.2a17.44 17.44 0 0 0 17.184-16.512 17.312 17.312 0 0 0-16.48-18.272 1725.536 1725.536 0 0 0-83.392-2.016 1417.248 1417.248 0 0 0-249.92 20.704c-63.296 12.224-138.784 35.68-138.784 77.92S198.72 299.2 262.048 311.424a1517.376 1517.376 0 0 0 499.84 0c63.328-12.224 138.816-35.712 138.848-78.016 0-31.296-38.176-55.232-116.704-73.152a17.408 17.408 0 1 0-7.776 33.952c62.432 14.272 81.984 28.992 87.872 35.488h2.976l-1.376 4.192c-4.352 13.312-41.344 28.544-98.944 40.704a1246.656 1246.656 0 0 1-254.848 22.624 1258.08 1258.08 0 0 1-254.944-22.4c-56.64-11.872-94.496-27.072-98.816-39.712l-0.352-1.024 0.32-1.024c4.32-13.312 41.28-28.544 98.88-40.736a1246.976 1246.976 0 0 1 254.912-22.624c27.104 0 54.4 0.672 81.6 2.016z m195.808 230.976a23.84 23.84 0 0 1 5.632 46.944 1264.704 1264.704 0 0 1-284.16 28.192 1264.704 1264.704 0 0 1-284.16-28.192 23.808 23.808 0 0 1 5.728-46.912 23.872 23.872 0 0 1 5.696 0.704 1217.152 1217.152 0 0 0 272.736 26.784 1217.152 1217.152 0 0 0 272.736-26.784 23.552 23.552 0 0 1 5.792-0.736z m-278.4 68.768a1258.24 1258.24 0 0 0 282.624-28.032 17.408 17.408 0 1 0-8.352-33.824 1223.616 1223.616 0 0 1-274.272 26.976 1223.616 1223.616 0 0 1-274.272-26.976 17.408 17.408 0 0 0-19.2 25.888 17.248 17.248 0 0 0 10.72 7.904 1258.208 1258.208 0 0 0 282.656 28.064z m208.8 83.936a23.84 23.84 0 0 1 3.584 47.392 1471.296 1471.296 0 0 1-212.384 14.304 1557.824 1557.824 0 0 1-164.992-8.352 23.84 23.84 0 0 1 2.208-47.52 18.112 18.112 0 0 1 2.88 0.192 1517.216 1517.216 0 0 0 160 8.032 1429.44 1429.44 0 0 0 205.344-13.792 23.552 23.552 0 0 1 3.264-0.256z m-208.8 55.296a1464.864 1464.864 0 0 0 211.456-14.24 17.44 17.44 0 0 0-2.656-34.656 17.184 17.184 0 0 0-2.528 0.192 1435.904 1435.904 0 0 1-206.272 13.856 1523.744 1523.744 0 0 1-160.608-8.064h-2.144a17.248 17.248 0 0 0-16.992 15.616 17.44 17.44 0 0 0 15.456 19.2 1551.36 1551.36 0 0 0 164.192 8.096z m-139.2 92.16h1.728c43.392 3.84 89.6 5.76 137.184 5.76 16.672 0 31.616-0.192 45.696-0.608h0.608a23.776 23.776 0 0 1 23.872 23.168 23.52 23.52 0 0 1-6.4 17.024 23.808 23.808 0 0 1-16.64 7.456c-18.24 0.416-33.152 0.608-46.944 0.608-48.736 0-96.32-2.016-141.376-5.952a23.808 23.808 0 0 1 2.368-47.52z m138.912 12.224c-48 0-94.176-1.952-137.6-5.792h-1.312a17.408 17.408 0 0 0-1.792 34.752c44.8 3.936 92.224 5.952 140.8 5.952 13.76 0 28.608-0.192 46.784-0.608a17.44 17.44 0 0 0 12.192-5.472 17.44 17.44 0 0 0-12.8-29.408h-0.448a1654.4 1654.4 0 0 1-45.728 0.608z m-47.52 132.128h2.016c29.824 0.768 61.6 0.768 91.424 0h1.184a23.488 23.488 0 0 1 23.296 23.2 23.872 23.872 0 0 1-23.168 24.48 2082.24 2082.24 0 0 1-47.136 0.608c-17.152 0-32.544-0.192-47.04-0.608a23.904 23.904 0 0 1-0.576-47.744z m47.648 7.072c-15.488 0-30.944-0.192-45.92-0.608h-0.224a16.768 16.768 0 0 0-17.664 16.928 17.376 17.376 0 0 0 16.928 17.92c14.432 0.416 29.76 0.608 46.88 0.608 13.824 0 28.32-0.192 46.944-0.608a17.44 17.44 0 0 0 16.928-17.888 17.12 17.12 0 0 0-17.824-16.96c-15.008 0.448-30.464 0.64-45.952 0.64z" fill="#ffce54" p-id="2485"></path></svg>