<?xml version="1.0" standalone="no"?><!DOCTYPE svg PUBLIC "-//W3C//DTD SVG 1.1//EN" "http://www.w3.org/Graphics/SVG/1.1/DTD/svg11.dtd"><svg t="1713518851763" class="icon" viewBox="0 0 1024 1024" version="1.1" xmlns="http://www.w3.org/2000/svg" p-id="1634" xmlns:xlink="http://www.w3.org/1999/xlink" width="32" height="32"><path d="M870.72 430.56a165.792 165.792 0 0 0-331.104 0v156.96h167.36a161.536 161.536 0 0 0 163.744-156.96z" fill="#EAEAEA" p-id="1635"></path><path d="M766.528 423.04a164.64 164.64 0 0 0-57.856-124.8c0.448-4.512 0.896-9.6 0.896-14.016a165.44 165.44 0 0 0-330.88 0 13.952 13.952 0 0 0 0.448 4.512 157.248 157.248 0 1 0-74.144 298.56v0.448h302.848v-0.448a164.864 164.864 0 0 0 158.688-164.256z" fill="#F7F7F7" p-id="1636"></path><path d="M490.144 903.84a4.544 4.544 0 0 1-4.512-4.512v-118.976a4.544 4.544 0 0 1 4.512-4.512 4.288 4.288 0 0 1 4.512 4.512v118.976a4.832 4.832 0 0 1-4.512 4.512z" fill="#D8D8D8" p-id="1637"></path><path d="M490.08 811.136a4.896 4.896 0 0 1-3.2-1.344l-17.184-17.184a4.16 4.16 0 0 1 5.888-5.888l14.016 14.016 14.016-14.016a4.16 4.16 0 0 1 5.888 5.888l-17.184 17.184c0 0.864-1.344 1.344-2.24 1.344z m17.184 83.68a4.896 4.896 0 0 1-3.2-1.344l-14.016-14.016-14.016 14.016a4.16 4.16 0 0 1-5.888-5.888l17.184-17.184a3.872 3.872 0 0 1 5.888 0l17.184 17.184a3.84 3.84 0 0 1 0 5.888 4.864 4.864 0 0 1-3.136 1.344z" fill="#D8D8D8" p-id="1638"></path><path d="M541.632 873.984a4.064 4.064 0 0 1-2.272-0.448l-103.136-59.264a4.256 4.256 0 1 1 4.512-7.232l103.136 59.264a3.968 3.968 0 0 1 1.344 5.888 4.128 4.128 0 0 1-3.584 1.792z" fill="#D8D8D8" p-id="1639"></path><path d="M437.6 834.176a4.352 4.352 0 0 1-4.064-3.2 4.928 4.928 0 0 1 3.2-5.44l19.456-4.96-4.992-19.456a4.48 4.48 0 0 1 8.608-2.272l6.4 23.52a3.968 3.968 0 0 1-0.448 3.2 3.2 3.2 0 0 1-2.72 1.824l-23.52 6.4a3.456 3.456 0 0 1-1.92 0.384z m87.296 50.208a4.352 4.352 0 0 1-4.064-3.2l-6.4-23.52a4.928 4.928 0 0 1 3.2-5.408l23.52-6.4a4.48 4.48 0 0 1 2.272 8.608l-19.456 4.96 4.96 19.456a4.928 4.928 0 0 1-3.2 5.44z" fill="#D8D8D8" p-id="1640"></path><path d="M438.496 873.984a4.608 4.608 0 0 1-3.616-2.272 4.288 4.288 0 0 1 1.344-5.888l103.136-59.264a4.256 4.256 0 0 1 4.512 7.232l-103.136 59.264a2.496 2.496 0 0 1-2.24 0.928z" fill="#D8D8D8" p-id="1641"></path><path d="M455.232 884.384h-0.896a4.64 4.64 0 0 1-3.2-5.44l4.992-19.456-19.456-4.96a4.48 4.48 0 1 1 2.272-8.608l23.52 6.4a4.64 4.64 0 0 1 3.2 5.408l-6.4 23.52a4.352 4.352 0 0 1-4.032 3.136z m86.848-50.208h-0.896l-23.52-6.4a4.64 4.64 0 0 1-3.2-5.44l6.4-23.52a4.48 4.48 0 0 1 8.608 2.272l-4.96 19.456 19.456 4.992a4.64 4.64 0 0 1 3.2 5.44 6.144 6.144 0 0 1-5.088 3.2z" fill="#D8D8D8" p-id="1642"></path><path d="M645.6 776.48a5.024 5.024 0 0 1-4.96-4.96v-138.432a4.96 4.96 0 0 1 9.952 0v138.432a5.024 5.024 0 0 1-4.992 4.96z" fill="#D8D8D8" p-id="1643"></path><path d="M645.568 668.736a5.152 5.152 0 0 1-3.616-1.344l-19.904-19.904a5.12 5.12 0 0 1 7.232-7.232l16.736 16.736 16.736-16.736a5.12 5.12 0 0 1 7.232 7.232l-19.904 19.904a11.968 11.968 0 0 1-4.512 1.344z m19.904 97.248a5.12 5.12 0 0 1-3.616-1.344l-16.736-16.736-16.736 16.736a5.12 5.12 0 0 1-7.232-7.232l19.904-19.904a5.504 5.504 0 0 1 7.232 0l19.904 19.904a5.504 5.504 0 0 1 0 7.232c-0.032 0.896-1.376 1.344-2.72 1.344z" fill="#D8D8D8" p-id="1644"></path><path d="M705.28 741.568a5.728 5.728 0 0 1-2.72-0.448l-119.872-69.216a4.96 4.96 0 0 1 4.992-8.576l119.872 69.216a5.088 5.088 0 0 1 1.792 6.784 4.224 4.224 0 0 1-4.064 2.24z" fill="#D8D8D8" p-id="1645"></path><path d="M584.48 695.392a5.28 5.28 0 0 1-4.992-3.616 5.152 5.152 0 0 1 3.616-6.4l22.624-5.888-5.888-22.624a5.152 5.152 0 0 1 9.952-2.72l7.232 27.584a5.152 5.152 0 0 1-3.616 6.4l-27.584 7.232c-0.416-0.416-0.864 0.032-1.344 0.032z m101.792 58.368a5.28 5.28 0 0 1-4.96-3.616l-7.232-27.584a5.152 5.152 0 0 1 3.616-6.4l27.584-7.232a5.152 5.152 0 0 1 2.72 9.952l-22.624 5.888 5.888 22.624a5.152 5.152 0 0 1-3.616 6.4z" fill="#D8D8D8" p-id="1646"></path><path d="M585.408 741.568a4.992 4.992 0 0 1-4.512-2.72 5.12 5.12 0 0 1 1.792-6.784l119.872-69.216a4.96 4.96 0 0 1 4.96 8.608l-119.872 69.216c-0.448 0.896-1.344 0.896-2.24 0.896z" fill="#D8D8D8" p-id="1647"></path><path d="M604.832 753.76h-1.344a5.536 5.536 0 0 1-3.616-6.4l5.888-22.624-22.624-5.888a5.536 5.536 0 0 1-3.616-6.4 5.312 5.312 0 0 1 6.4-3.616l27.584 7.232a5.536 5.536 0 0 1 3.616 6.4l-7.232 27.584a5.28 5.28 0 0 1-5.056 3.712z m101.312-58.816h-1.344l-27.584-7.232a8.16 8.16 0 0 1-3.2-2.272 5.376 5.376 0 0 1-0.448-3.616l7.232-27.584a5.152 5.152 0 0 1 6.4-3.616 5.536 5.536 0 0 1 3.616 6.4l-5.888 22.624 22.624 5.888a5.536 5.536 0 0 1 3.616 6.4 5.088 5.088 0 0 1-4.992 3.008z" fill="#D8D8D8" p-id="1648"></path><path d="M354.016 775.04a5.984 5.984 0 0 1-5.888-5.888v-163.296a5.888 5.888 0 0 1 11.776 0v163.2a5.984 5.984 0 0 1-5.888 5.888z" fill="#D8D8D8" p-id="1649"></path><path d="M353.984 647.456a4.896 4.896 0 0 1-4.064-1.824l-23.52-23.52a5.76 5.76 0 0 1 8.128-8.16l19.456 19.456 19.456-19.456a5.76 5.76 0 0 1 8.128 8.16l-23.52 23.52a4.384 4.384 0 0 1-4.064 1.824z m-23.52 114.912a4.896 4.896 0 0 1-4.064-1.824 5.728 5.728 0 0 1 0-8.128l23.52-23.52a6.752 6.752 0 0 1 4.064-1.824 4.928 4.928 0 0 1 4.064 1.824l23.52 23.52a5.76 5.76 0 0 1-8.128 8.128l-19.456-19.456-19.456 19.456a5.504 5.504 0 0 1-4.064 1.824z" fill="#D8D8D8" p-id="1650"></path><path d="M425.056 733.888a11.456 11.456 0 0 1-3.2-0.896l-141.568-81.888a5.984 5.984 0 1 1 5.888-10.4l141.568 82.336a6.4 6.4 0 0 1 2.272 8.128 5.664 5.664 0 0 1-4.96 2.72z" fill="#D8D8D8" p-id="1651"></path><path d="M282.08 679.168a6.4 6.4 0 0 1-5.888-4.512 5.792 5.792 0 0 1 4.064-7.232l26.688-7.232-7.232-26.688a5.856 5.856 0 1 1 11.296-3.2l8.608 32a7.84 7.84 0 0 1-0.448 4.512 7.008 7.008 0 0 1-3.616 2.72l-32.576 8.608c0.48 1.024 0.032 1.024-0.896 1.024z m120.32 69.216a6.4 6.4 0 0 1-5.888-4.512l-8.608-32.576a5.824 5.824 0 0 1 4.064-7.232l32.576-8.608a5.888 5.888 0 0 1 3.2 11.296l-26.688 7.232 7.232 26.688a5.792 5.792 0 0 1-4.064 7.232 3.392 3.392 0 0 1-1.792 0.448z" fill="#D8D8D8" p-id="1652"></path><path d="M283.456 733.856a4.896 4.896 0 0 1-4.96-3.2 6.048 6.048 0 0 1 2.272-8.16l141.6-81.888a5.984 5.984 0 0 1 5.888 10.4l-141.6 81.888a4.864 4.864 0 0 1-3.2 0.96z" fill="#D8D8D8" p-id="1653"></path><path d="M306.048 748.352h-1.344a5.824 5.824 0 0 1-4.064-7.232l7.232-26.688-26.688-7.232a5.856 5.856 0 1 1 3.2-11.296l32.576 8.576a7.04 7.04 0 0 1 3.616 2.72 5.344 5.344 0 0 1 0.448 4.512l-8.608 32a7.296 7.296 0 0 1-6.368 4.64z m119.872-69.216h-1.344l-32.576-8.608a5.824 5.824 0 0 1-4.064-7.232l8.608-32.576a5.888 5.888 0 0 1 11.296 3.2l-7.232 26.688 26.688 7.232a5.824 5.824 0 0 1 4.064 7.232 5.44 5.44 0 0 1-5.44 4.064z" fill="#D8D8D8" p-id="1654"></path></svg>