<?xml version="1.0" standalone="no"?><!DOCTYPE svg PUBLIC "-//W3C//DTD SVG 1.1//EN" "http://www.w3.org/Graphics/SVG/1.1/DTD/svg11.dtd"><svg t="1713518830306" class="icon" viewBox="0 0 1024 1024" version="1.1" xmlns="http://www.w3.org/2000/svg" p-id="975" xmlns:xlink="http://www.w3.org/1999/xlink" width="32" height="32"><path d="M240.544 512.064a271.072 271.072 0 1 0 271.072-270.976 271.04 271.04 0 0 0-270.976 270.976z" fill="#EDA915" p-id="976"></path><path d="M511.712 163.424a22.4 22.4 0 0 1-22.4-22.4v-54.4a22.4 22.4 0 1 1 44.8 0v54.4a22.4 22.4 0 0 1-22.4 22.4z m-204.48 66.208a22.656 22.656 0 0 1-30.976-4.8l-32-44.32a22.144 22.144 0 0 1 35.776-26.144l32 44.32a22.592 22.592 0 0 1-4.64 30.944zM180.16 404.224a22.208 22.208 0 0 1-27.776 14.4l-51.776-17.088a22.112 22.112 0 0 1 13.344-42.176l51.776 17.088a21.984 21.984 0 0 1 14.432 27.776z m0 215.168a21.984 21.984 0 0 1-14.4 27.776l-51.776 17.088a22.112 22.112 0 0 1-13.344-42.176l51.776-17.088a22.88 22.88 0 0 1 27.744 14.368z m126.528 174.592a22.176 22.176 0 0 1 4.8 30.976l-32 44.32a22.176 22.176 0 1 1-35.776-26.176l32-44.32a22.752 22.752 0 0 1 31.008-4.832z m205.024 66.72a22.4 22.4 0 0 1 22.4 22.4v54.4a22.4 22.4 0 0 1-44.8 0v-54.4a22.912 22.912 0 0 1 22.4-22.432z m205.024-66.72a22.656 22.656 0 0 1 30.976 4.8l32 44.32a22.176 22.176 0 1 1-35.776 26.176l-32-44.32a22.656 22.656 0 0 1 4.8-31.008z m127.072-174.048a22.208 22.208 0 0 1 27.776-14.4l51.776 17.088a22.112 22.112 0 1 1-13.344 42.176l-51.776-17.088a21.376 21.376 0 0 1-14.432-27.808z m0-215.68a21.984 21.984 0 0 1 14.4-27.776l51.776-17.088a22.112 22.112 0 0 1 13.344 42.176l-51.776 17.088a21.984 21.984 0 0 1-27.744-14.432z m-127.072-174.592a22.176 22.176 0 0 1-4.8-30.976l32-44.32a22.144 22.144 0 1 1 35.776 26.144l-32 44.32a21.632 21.632 0 0 1-30.976 4.8z" fill="#EDA915" p-id="977"></path></svg>