<?xml version="1.0" standalone="no"?><!DOCTYPE svg PUBLIC "-//W3C//DTD SVG 1.1//EN" "http://www.w3.org/Graphics/SVG/1.1/DTD/svg11.dtd"><svg t="1713518985249" class="icon" viewBox="0 0 1024 1024" version="1.1" xmlns="http://www.w3.org/2000/svg" p-id="950" xmlns:xlink="http://www.w3.org/1999/xlink" width="32" height="32"><path d="M592 340a140 140 0 1 0 280 0 140 140 0 1 0-280 0z" fill="#FFCC00" p-id="951"></path><path d="M524 852H260c-90.4 0-164-73.6-164-164s73.6-164 164-164h264c90.4 0 164 73.6 164 164s-73.6 164-164 164z" fill="#C3D2FB" p-id="952"></path><path d="M708.8 852H514.4C368 852 248 732 248 585.6v-51.2C248 388 368 268 514.4 268 676 268 808 400 808 561.6v191.2c0 54.4-44.8 99.2-99.2 99.2z" fill="#7094F3" p-id="953"></path><path d="M504 624a228 228 0 1 0 456 0 228 228 0 1 0-456 0z" fill="#386BF3" p-id="954"></path><path d="M736 136h16v48h-16z m-134.64 44.68l11.32-11.312 33.936 33.944-11.312 11.312z m224 30.632l33.944-33.936 11.312 11.312-33.936 33.944zM880 288h48v16h-48z m0.664 96.944l13.104-9.176 27.536 39.32-13.104 9.176z" fill="#FFCC00" p-id="955"></path></svg>