<?xml version="1.0" standalone="no"?><!DOCTYPE svg PUBLIC "-//W3C//DTD SVG 1.1//EN" "http://www.w3.org/Graphics/SVG/1.1/DTD/svg11.dtd"><svg t="1713518857553" class="icon" viewBox="0 0 1024 1024" version="1.1" xmlns="http://www.w3.org/2000/svg" p-id="1815" xmlns:xlink="http://www.w3.org/1999/xlink" width="32" height="32"><path d="M808.768 617.632a86.88 86.88 0 0 0-39.552 9.6H220.544a28.8 28.8 0 1 0 0 57.248H723.84a87.488 87.488 0 1 0 84.928-66.784z m-1.824-386.464a128.672 128.672 0 0 0-109.792 195.616H311.68a28.64 28.64 0 0 0 0 57.248h461.024a128.736 128.736 0 1 0 34.272-252.8z m0 338.752H92.576a28.64 28.64 0 0 1 0-57.248h714.4a28.64 28.64 0 0 1 0 57.248z" fill="#FFFFFF" fill-opacity="0.4" p-id="1816"></path><path d="M813.504 806.048a14.24 14.24 0 1 1 0-28.512 68.256 68.256 0 1 0 0-136.512l-581.312-1.248a13.696 13.696 0 1 1 0-27.36l581.28 0.672a96.48 96.48 0 1 1 0 192.96z m-8.704-236.384H91.2a14.24 14.24 0 1 1 0-28.512h713.6a14.24 14.24 0 1 1 0 28.512z m44.576-71.264h-26.144a14.208 14.208 0 0 1-3.424-0.416l-475.392-6.656a14.272 14.272 0 1 1 0.384-28.512l485.472 6.784a115.904 115.904 0 0 0 101.184-115.2 108.288 108.288 0 0 0-108.224-108.096 14.24 14.24 0 1 1 0-28.512A136.832 136.832 0 0 1 960 354.4a145.504 145.504 0 0 1-99.2 138.24 14.336 14.336 0 0 1-11.424 5.792z" fill="#F7F7F7" p-id="1817"></path></svg>