<?xml version="1.0" standalone="no"?><!DOCTYPE svg PUBLIC "-//W3C//DTD SVG 1.1//EN" "http://www.w3.org/Graphics/SVG/1.1/DTD/svg11.dtd"><svg t="1713518843775" class="icon" viewBox="0 0 1024 1024" version="1.1" xmlns="http://www.w3.org/2000/svg" p-id="1307" xmlns:xlink="http://www.w3.org/1999/xlink" width="32" height="32"><path d="M960 606.24a206.56 206.56 0 0 0-412.544 0v195.52h208.416A200.992 200.992 0 0 0 960 606.24z" fill="#EAEAEA" p-id="1308"></path><path d="M829.984 596.64a203.04 203.04 0 0 0-72.512-155.776c0.544-5.92 1.088-11.808 1.088-17.728a206.56 206.56 0 0 0-413.088 0.544 22.048 22.048 0 0 0 0.544 5.92 198.208 198.208 0 0 0-85.952-19.872 196.096 196.096 0 0 0-5.92 392.128v0.544h378.048v-0.544a205.824 205.824 0 0 0 197.792-205.216z" fill="#F7F7F7" p-id="1309"></path></svg>